:SAMPLES-PER-SECOND 30
:FULLY-SPECIFIED
:DEGREES
17
root  77.7424 40.463 -3.52272 -167.166 -88.4573 168.032
RightUpLeg  0.829863 -8.48072 -6.05913
RightLeg  2.16727 -9.4275 3.81127
RightFoot  -2.00692 0.0425638 -0.705629
RightToes  3.49245e-010 0 -3.6325e-017
Spine  1.63771 -0.222195 -0.826467
Spine1  3.01612 -0.416875 0.934398
HEad  -0.819983 2.90885 1.12513
LeftShoulder1  1.06798 -1.16735 -15.9569
LeftArm  -16.3692 8.89262 -2.24032
LeftForeArm  8.49543 -0.741523 -2.08646
LeftHand  -0.244104 0.0205437 5.32207
RightShoulder  0.856307 0.85231 12.6318
RightArm  -19.1973 -0.326935 1.49829
RightForeArm  5.36771 0.83346 3.20152
RightHand  -0.742239 2.17565 -11.56
LeftUpLeg  0.212485 6.24782 4.66615
LeftLeg  1.39401 16.201 -4.18052
LeftFoot  -1.66563 0.122307 -1.35592
LeftToes  1.68253e-010 -2.29257e-011 3.59052e-011
18
root  77.7308 40.4637 -3.51593 -168.368 -88.3801 169.273
RightUpLeg  0.775077 -8.45968 -6.03753
RightLeg  2.19186 -9.36979 3.79464
RightFoot  -2.00796 0.0420853 -0.698197
RightToes  3.49245e-010 0 -3.6325e-017
Spine  1.68078 -0.246299 -0.881154
Spine1  3.0124 -0.476244 1.09133
HEad  -0.796418 2.93279 1.03114
LeftShoulder1  1.10415 -1.21883 -16.5205
LeftArm  -16.5976 9.10335 -2.06193
LeftForeArm  9.04218 -1.20034 -1.99638
LeftHand  -0.244104 0.0205437 5.32207
RightShoulder  0.879552 0.928253 12.8405
RightArm  -19.9428 -0.384219 1.7397
RightForeArm  5.44858 1.12353 2.99469
RightHand  -0.757497 2.15222 -11.8237
LeftUpLeg  0.20874 6.2926 4.69238
LeftLeg  1.38379 16.2503 -4.22303
LeftFoot  -1.69865 0.11957 -1.31338
LeftToes  1.68253e-010 -2.29257e-011 3.59052e-011
19
root  77.7119 40.4647 -3.50682 -169.406 -88.2993 170.384
RightUpLeg  0.726629 -8.45461 -6.0326
RightLeg  2.15999 -9.2831 3.80997
RightFoot  -1.98937 0.0417459 -0.692924
RightToes  3.49245e-010 0 -3.6325e-017
Spine  1.39347 -0.316115 -0.740336
Spine1  3.47635 -0.520212 0.932613
HEad  -1.35556 3.34141 0.987799
LeftShoulder1  1.09831 -1.09364 -17.062
LeftArm  -17.6112 9.31435 -2.42001
LeftForeArm  10.4247 -2.31796 -1.67492
LeftHand  -0.244104 0.0205437 5.32207
RightShoulder  0.904977 0.942878 13.3988
RightArm  -20.8752 -0.416348 2.33417
RightForeArm  4.03619 1.81845 2.91688
RightHand  -0.88123 2.67143 -12.8565
LeftUpLeg  0.166912 6.33906 4.71945
LeftLeg  1.40397 16.2659 -4.2637
LeftFoot  -1.73604 0.121551 -1.34417
LeftToes  1.68253e-010 -2.29257e-011 3.59052e-011
20
root  77.6903 40.4655 -3.49467 -170.475 -88.1852 171.512
RightUpLeg  0.723475 -8.47005 -6.05041
RightLeg  2.07344 -9.13294 3.85655
RightFoot  -1.94645 0.0419479 -0.696061
RightToes  3.49245e-010 0 -3.6325e-017
Spine  1.17117 -0.351419 -0.426186
Spine1  3.8545 -0.476203 0.525176
HEad  -1.9008 3.43783 1.05323
LeftShoulder1  1.15111 -1.18441 -17.7767
LeftArm  -19.0077 10.0787 -3.24053
LeftForeArm  13.0559 -4.82258 -1.34722
LeftHand  -0.244104 0.0205437 5.32207
RightShoulder  0.986829 1.1394 14.3856
RightArm  -21.5822 -0.955787 3.27286
RightForeArm  0.62423 3.04422 3.09629
RightHand  -1.05951 3.25079 -14.4154
LeftUpLeg  0.157812 6.32934 4.70877
LeftLeg  1.39915 16.3822 -4.24842
LeftFoot  -1.76869 0.125688 -1.40847
LeftToes  1.68253e-010 -2.29257e-011 3.59052e-011
21
root  77.6759 40.4658 -3.48176 -171.38 -88.0151 172.471
RightUpLeg  0.681753 -8.48456 -6.06864
RightLeg  2.029 -8.93754 3.88582
RightFoot  -1.90892 0.042241 -0.700615
RightToes  3.49245e-010 0 -3.6325e-017
Spine  1.29666 -0.309818 -0.133385
Spine1  3.7623 -0.36875 0.207007
HEad  -1.90114 2.84068 1.0172
LeftShoulder1  1.32839 -1.64209 -19.1427
LeftArm  -20.233 11.4804 -4.22869
LeftForeArm  16.5835 -8.78854 -1.31319
LeftHand  -0.244104 0.0205437 5.32207
RightShoulder  1.16379 1.66667 15.7591
RightArm  -21.7693 -2.25994 4.57984
RightForeArm  -3.76022 5.00854 3.55113
RightHand  -1.20055 3.34334 -16.1131
LeftUpLeg  0.197883 6.2777 4.65979
LeftLeg  1.27891 16.6247 -4.22879
LeftFoot  -1.7772 0.123185 -1.36956
LeftToes  1.68253e-010 -2.29257e-011 3.59052e-011
22
root  77.6724 40.465 -3.47077 -172.063 -87.8512 173.219
RightUpLeg  0.581716 -8.4822 -6.0669
RightLeg  2.03815 -8.79233 3.88605
RightFoot  -1.89302 0.0421359 -0.698982
RightToes  3.49245e-010 0 -3.6325e-017
Spine  1.48591 -0.231022 0.134545
Spine1  3.6828 -0.245238 -0.000969043
HEad  -1.75121 2.04765 0.80035
LeftShoulder1  1.62851 -2.33396 -21.3835
LeftArm  -21.4756 12.9698 -5.34641
LeftForeArm  19.8629 -13.4035 -1.64753
LeftHand  -0.244104 0.0205437 5.32207
RightShoulder  1.43772 2.45151 17.5405
RightArm  -21.3851 -4.0932 6.29667
RightForeArm  -6.60816 7.60946 4.14427
RightHand  -1.31838 3.44441 -17.454
LeftUpLeg  0.208558 6.25013 4.62416
LeftLeg  1.14699 16.8207 -4.24695
LeftFoot  -1.76562 0.115057 -1.24323
LeftToes  1.68253e-010 -2.29257e-011 3.59052e-011
23
root  77.6745 40.4631 -3.46308 -172.714 -87.7724 173.919
RightUpLeg  0.521602 -8.46812 -6.0494
RightLeg  2.01865 -8.75442 3.8895
RightFoot  -1.88742 0.0415471 -0.689835
RightToes  3.49245e-010 0 -3.6325e-017
Spine  1.36367 -0.153078 0.51933
Spine1  4.18436 -0.0904204 -0.358478
HEad  -2.1539 1.77693 0.603869
LeftShoulder1  2.05061 -3.22901 -24.1086
LeftArm  -23.3203 14.247 -6.93073
LeftForeArm  22.2712 -17.8262 -2.36987
LeftHand  -0.244104 0.0205437 5.32207
RightShoulder  1.79037 3.32234 19.7984
RightArm  -20.5149 -6.01009 8.42893
RightForeArm  -6.56075 10.1612 4.63345
RightHand  -1.37927 3.71487 -17.7207
LeftUpLeg  0.143575 6.26588 4.6311
LeftLeg  1.17634 16.8639 -4.25212
LeftFoot  -1.78255 0.112145 -1.19795
LeftToes  1.68253e-010 -2.29257e-011 3.59052e-011
24
root  77.6759 40.4612 -3.4601 -172.898 -87.7556 174.131
RightUpLeg  0.493435 -8.45667 -6.0384
RightLeg  2.00877 -8.76094 3.88893
RightFoot  -1.90443 0.0423004 -0.701539
RightToes  3.49245e-010 0 -3.6325e-017
Spine  1.0373 -0.0653003 0.909338
Spine1  4.99442 0.0926063 -0.784072
HEad  -2.95889 1.89676 0.521191
LeftShoulder1  2.58551 -4.34575 -26.7247
LeftArm  -25.0416 15.492 -9.38135
LeftForeArm  23.7707 -21.488 -3.2589
LeftHand  -0.244104 0.0205437 5.32207
RightShoulder  2.20485 4.16969 22.4768
RightArm  -19.1203 -7.66434 10.9242
RightForeArm  -4.84322 11.9477 4.88
RightHand  -1.26327 3.4435 -16.7341
LeftUpLeg  0.0708016 6.29348 4.64545
LeftLeg  1.27711 16.8568 -4.24438
LeftFoot  -1.85749 0.117876 -1.28703
LeftToes  1.68253e-010 -2.29257e-011 3.59052e-011
